HIERARCHY
ROOT Hips
{
	OFFSET 0.00000 0.00000 0.00000
	CHANNELS 6 Xposition Yposition Zposition Zrotation Yrotation Xrotation 
	JOINT LHipJoint
	{
		OFFSET 0 0 0
		CHANNELS 3 Zrotation Yrotation Xrotation
		JOINT LeftUpLeg
		{
			OFFSET 1.92384 -1.64427 0.83032
			CHANNELS 3 Zrotation Yrotation Xrotation
			JOINT LeftLeg
			{
				OFFSET 2.52872 -6.94761 0.00000
				CHANNELS 3 Zrotation Yrotation Xrotation
				JOINT LeftFoot
				{
					OFFSET 2.51827 -6.91890 0.00000
					CHANNELS 3 Zrotation Yrotation Xrotation
					JOINT LeftToeBase
					{
						OFFSET 0.22757 -0.62524 2.06528
						CHANNELS 3 Zrotation Yrotation Xrotation
						End Site
						{
							OFFSET 0.00000 -0.00000 1.08218
						}
					}
				}
			}
		}
	}
	JOINT RHipJoint
	{
		OFFSET 0 0 0
		CHANNELS 3 Zrotation Yrotation Xrotation
		JOINT RightUpLeg
		{
			OFFSET -2.09517 -1.64427 0.83032
			CHANNELS 3 Zrotation Yrotation Xrotation
			JOINT RightLeg
			{
				OFFSET -2.55173 -7.01082 0.00000
				CHANNELS 3 Zrotation Yrotation Xrotation
				JOINT RightFoot
				{
					OFFSET -2.50265 -6.87598 0.00000
					CHANNELS 3 Zrotation Yrotation Xrotation
					JOINT RightToeBase
					{
						OFFSET -0.22612 -0.62126 1.98677
						CHANNELS 3 Zrotation Yrotation Xrotation
						End Site
						{
							OFFSET -0.00000 -0.00000 1.04433
						}
					}
				}
			}
		}
	}
	JOINT LowerBack
	{
		OFFSET 0 0 0
		CHANNELS 3 Zrotation Yrotation Xrotation
		JOINT Spine
		{
			OFFSET 0.02839 1.68926 0.31690
			CHANNELS 3 Zrotation Yrotation Xrotation
			JOINT Spine1
			{
				OFFSET -0.01522 1.70183 0.21192
				CHANNELS 3 Zrotation Yrotation Xrotation
				JOINT Neck
				{
					OFFSET 0 0 0
					CHANNELS 3 Zrotation Yrotation Xrotation
					JOINT Neck1
					{
						OFFSET -0.04523 1.88988 0.10630
						CHANNELS 3 Zrotation Yrotation Xrotation
						JOINT Head
						{
							OFFSET 0.05172 1.78070 -0.56858
							CHANNELS 3 Zrotation Yrotation Xrotation
							End Site
							{
								OFFSET 0.01532 1.90392 -0.20434
							}
						}
					}
				}
				JOINT LeftShoulder
				{
					OFFSET 0 0 0
					CHANNELS 3 Zrotation Yrotation Xrotation
					JOINT LeftArm
					{
						OFFSET 3.25522 0.75486 0.22086
						CHANNELS 3 Zrotation Yrotation Xrotation
						JOINT LeftForeArm
						{
							OFFSET 4.85645 -0.00000 0.00000
							CHANNELS 3 Zrotation Yrotation Xrotation
							JOINT LeftHand
							{
								OFFSET 2.79874 -0.00000 0.00000
								CHANNELS 3 Zrotation Yrotation Xrotation
								JOINT LeftFingerBase
								{
									OFFSET 0 0 0
									CHANNELS 3 Zrotation Yrotation Xrotation
									JOINT LeftHandIndex1
									{
										OFFSET 0.57340 -0.00000 0.00000
										CHANNELS 3 Zrotation Yrotation Xrotation
										End Site
										{
											OFFSET 0.46229 -0.00000 0.00000
										}
									}
								}
								JOINT LThumb
								{
									OFFSET 0 0 0
									CHANNELS 3 Zrotation Yrotation Xrotation
									End Site
									{
										OFFSET 0.46935 -0.00000 0.46935
									}
								}
							}
						}
					}
				}
				JOINT RightShoulder
				{
					OFFSET 0 0 0
					CHANNELS 3 Zrotation Yrotation Xrotation
					JOINT RightArm
					{
						OFFSET -3.29079 0.52751 0.36356
						CHANNELS 3 Zrotation Yrotation Xrotation
						JOINT RightForeArm
						{
							OFFSET -4.67018 -0.00000 0.00000
							CHANNELS 3 Zrotation Yrotation Xrotation
							JOINT RightHand
							{
								OFFSET -2.65534 -0.00000 0.00000
								CHANNELS 3 Zrotation Yrotation Xrotation
								JOINT RightFingerBase
								{
									OFFSET 0 0 0
									CHANNELS 3 Zrotation Yrotation Xrotation
									JOINT RightHandIndex1
									{
										OFFSET -0.59407 -0.00000 0.00000
										CHANNELS 3 Zrotation Yrotation Xrotation
										End Site
										{
											OFFSET -0.47895 -0.00000 0.00000
										}
									}
								}
								JOINT RThumb
								{
									OFFSET 0 0 0
									CHANNELS 3 Zrotation Yrotation Xrotation
									End Site
									{
										OFFSET -0.48627 -0.00000 0.48627
									}
								}
							}
						}
					}
				}
			}
		}
	}
}
MOTION
Frames: 8
Frame Time: .0083333
7.3683 16.9872 17.0522 0 0 0 0 0 0 -21 0 0 0 0 0 0 0 0 0 0 0 0 0 0 21 0 0 0 0 0 0 0 0 0 0 0 0 0 0 0 0 0 0 0 0 0 0 -16 0 0 21 0 0 11 0 0 0 -8 0 0 0 0 0 0 0 0 0 0 0 0 0 0 0 0 0 0 0 0 8 0 0 0 0 0 0 0 0 0 0 0 0 0 0 0 0 0
7.3683 16.9872 17.0522 178.2590 13.6808 -151.3440 0.0000 0.0000 0.0000 -12.0463 -25.2538 -47.6316 2.4386 9.7255 28.0922 -0.4818 12.8127 -8.9634 0.2168 -2.9973 -8.2713 0.0000 0.0000 0.0000 16.8506 15.1457 -26.7138 -4.8130 -13.1701 40.0084 -0.5741 -3.4823 -16.0040 -0.5997 4.9574 -13.7871 -0.3771 -4.1804 -19.8868 1.2490 -2.4015 -14.7155 1.0700 0.2140 -4.8182 -17.4073 -14.0476 -6.6135 4.8937 -16.6423 32.8384 2.4097 -8.0540 14.4357 -0.0000 -0.0000 0.0000 -46.4577 42.9086 104.6637 112.1756 -58.0578 -79.0794 -0.0000 0.0000 -79.1572 59.5816 56.2667 54.7781 -7.1250 0.0000 -0.0000 -178.5738 11.3043 -1.1193 -0.0000 -0.0000 0.0000 44.7071 -43.2828 104.3666 -117.2266 57.0048 -83.3418 0.0000 -0.0000 -58.3546 -83.3093 -59.1479 82.2191 7.1250 -0.0000 -0.0000 176.9202 -25.9969 -1.4202
7.3497 16.9946 16.9610 178.1300 13.7865 -151.4450 0.0000 0.0000 0.0000 -12.4748 -25.3326 -47.0698 2.4198 9.6906 27.9806 -0.4824 12.9080 -9.2990 0.2136 -2.9755 -8.2105 0.0000 0.0000 0.0000 16.5441 14.5169 -27.8694 -5.2716 -13.6832 41.9831 -0.4597 -3.1953 -14.3775 -0.5111 4.5824 -12.7213 -0.5004 -4.0992 -19.8386 1.1612 -2.2960 -14.6656 1.0628 0.2636 -4.7846 -16.9313 -13.8322 -7.0448 4.2327 -16.0456 33.6783 2.1726 -7.7688 14.7067 -0.0000 -0.0000 0.0000 -46.3800 42.6953 104.6855 112.1488 -58.0627 -79.0566 -0.0000 0.0000 -79.1438 59.5200 56.2833 54.7169 -7.1250 0.0000 -0.0000 -178.5970 11.2832 -1.1017 -0.0000 -0.0000 0.0000 44.8503 -43.3953 104.2651 -117.0545 57.0451 -83.1974 0.0000 -0.0000 -58.3197 -82.2074 -58.7364 80.9042 7.1250 -0.0000 -0.0000 176.6951 -25.2730 -1.5801
7.3321 17.0026 16.8722 177.9810 13.8964 -151.5360 0.0000 0.0000 0.0000 -13.0014 -25.2776 -46.5400 2.3952 9.6449 27.8342 -0.4677 12.8365 -9.5845 0.2092 -2.9448 -8.1251 0.0000 0.0000 0.0000 16.2005 14.0159 -29.0554 -5.7546 -14.1862 43.9887 -0.3437 -3.2190 -12.7329 -0.4526 4.3161 -11.9678 -0.6692 -4.0274 -19.7759 1.0695 -2.1953 -14.6222 1.0764 0.3148 -4.7636 -16.4280 -13.6147 -7.4911 3.6181 -15.4527 34.5312 1.9453 -7.4748 15.0039 -0.0000 -0.0000 0.0000 -46.2900 42.4621 104.7251 112.1220 -58.0676 -79.0339 -0.0000 0.0000 -79.1254 59.4045 56.3020 54.5982 -7.1250 0.0000 -0.0000 -178.6340 11.2359 -1.0740 -0.0000 -0.0000 0.0000 45.0186 -43.4793 104.0764 -117.0409 57.0482 -83.1861 0.0000 -0.0000 -58.2792 -81.6983 -58.6863 80.3078 7.1250 -0.0000 -0.0000 176.6989 -24.9599 -1.6023
7.3168 17.0102 16.7856 177.8460 14.0148 -151.6280 0.0000 0.0000 0.0000 -13.6333 -25.0187 -46.0497 2.3742 9.6055 27.7086 -0.4355 12.5884 -9.8792 0.2126 -2.9688 -8.1920 0.0000 0.0000 0.0000 15.8477 13.7115 -30.2601 -6.2379 -14.6550 45.9292 -0.2193 -3.7053 -11.0070 -0.3576 3.8417 -10.6316 -0.8513 -3.9509 -19.7434 0.9775 -2.0989 -14.5319 1.0966 0.3586 -4.6737 -15.8642 -13.3861 -7.9752 3.0767 -14.8689 35.3739 1.7321 -7.1673 15.3208 0.0000 0.0000 0.0000 -46.2199 42.2085 104.7446 112.1506 -58.0624 -79.0582 -0.0000 0.0000 -79.1165 59.3273 56.3019 54.5150 -7.1250 0.0000 -0.0000 -178.6515 11.1960 -1.0613 0.0000 0.0000 0.0000 45.2497 -43.5668 103.8740 -116.9039 57.0800 -83.0711 0.0000 -0.0000 -58.0944 -81.0742 -58.3660 79.5483 7.1250 -0.0000 -0.0000 176.5164 -24.5206 -1.7267
7.3011 17.0149 16.6992 177.7220 14.1207 -151.7050 0.0000 0.0000 0.0000 -14.1846 -24.8444 -45.5775 2.3547 9.5688 27.5913 -0.4105 12.4210 -10.1710 0.2138 -2.9765 -8.2134 0.0000 0.0000 0.0000 15.5110 13.3742 -31.4416 -6.7281 -15.0986 47.8382 -0.1155 -4.1429 -9.2749 -0.2725 3.3579 -9.2769 -1.0214 -3.8900 -19.7114 0.9077 -2.0158 -14.4686 1.1314 0.3999 -4.6144 -15.3051 -13.1448 -8.3968 2.5127 -14.2568 36.1751 1.5166 -6.8525 15.6144 0.0000 0.0000 0.0000 -46.1751 41.9937 104.7611 112.1452 -58.0634 -79.0536 -0.0000 0.0000 -79.1100 59.2591 56.3067 54.4430 -7.1250 0.0000 -0.0000 -178.6696 11.1639 -1.0479 0.0000 0.0000 0.0000 45.4007 -43.6564 103.7381 -116.7633 57.1125 -82.9530 0.0000 -0.0000 -57.9677 -80.1408 -57.9818 78.4163 7.1250 -0.0000 -0.0000 176.3234 -23.8703 -1.8780
7.2861 17.0188 16.6141 177.6100 14.2147 -151.7700 0.0000 0.0000 0.0000 -14.7263 -24.6384 -45.1421 2.3386 9.5383 27.4943 -0.3815 12.2173 -10.4635 0.2158 -2.9909 -8.2534 0.0000 0.0000 0.0000 15.1878 13.0986 -32.6276 -7.2190 -15.5136 49.6978 -0.0294 -4.6940 -7.6532 -0.2036 2.9053 -8.0151 -1.1926 -3.8412 -19.6844 0.8558 -1.9478 -14.4060 1.1837 0.4347 -4.5527 -14.7375 -12.8918 -8.8002 1.9889 -13.6390 36.9463 1.3157 -6.5294 15.9068 0.0000 0.0000 0.0000 -46.1618 41.7941 104.7683 112.1273 -58.0666 -79.0384 -0.0000 0.0000 -79.1095 59.2096 56.3086 54.3904 -7.1250 0.0000 -0.0000 -178.6820 11.1397 -1.0388 0.0000 0.0000 0.0000 45.5309 -43.7404 103.5952 -116.6190 57.1456 -82.8318 0.0000 -0.0000 -57.7966 -79.4053 -57.6750 77.5187 7.1250 -0.0000 -0.0000 176.1758 -23.3469 -1.9999
7.2718 17.0224 16.5300 177.5140 14.2952 -151.8160 0.0000 0.0000 0.0000 -15.2356 -24.4292 -44.7453 2.3264 9.5152 27.4206 -0.3513 12.0093 -10.7660 0.2188 -3.0113 -8.3103 0.0000 0.0000 0.0000 14.8842 12.8810 -33.8131 -7.7048 -15.8978 51.4923 0.0340 -5.2732 -6.3217 -0.1572 2.5548 -7.0417 -1.3558 -3.8025 -19.6691 0.8197 -1.8924 -14.3451 1.2463 0.4639 -4.4871 -14.1760 -12.6284 -9.1721 1.5224 -13.0246 37.6718 1.1383 -6.2021 16.1907 0.0000 0.0000 0.0000 -46.1739 41.6103 104.7713 112.0952 -58.0725 -79.0111 -0.0000 0.0000 -79.1119 59.1788 56.3089 54.3573 -7.1250 0.0000 -0.0000 -178.6893 11.1240 -1.0335 0.0000 0.0000 0.0000 45.6445 -43.8228 103.4410 -116.4813 57.1769 -82.7161 0.0000 -0.0000 -57.6146 -78.8218 -57.4284 76.8031 7.1250 -0.0000 -0.0000 176.0613 -22.9245 -2.0982
